<svg width="345" height="388" viewBox="0 0 345 388" fill="none" xmlns="http://www.w3.org/2000/svg">
<path d="M330.107 332.857L246.607 387.357L60.1074 355.857L1.10742 332.857C8.27409 328.357 27.1074 313.557 45.1074 290.357C67.6074 261.357 45.1074 266.357 45.1074 228.357C45.1074 190.357 79.1074 200.857 95.6074 164.357C95.6074 141.857 86.6074 121.357 86.6074 94.8567C86.6074 73.6567 107.607 60.0234 118.107 55.8568V24.3567L144.607 55.8568H153.607C150.607 41.5235 144.607 10.6568 144.607 1.8568C144.607 -6.9432 168.941 29.1901 181.107 48.3568L214.107 38.3568C217.941 41.6901 227.807 48.3568 236.607 48.3568C247.607 48.3568 285.607 38.3568 298.607 38.3568C311.607 38.3568 306.107 38.3568 318.607 48.3568C331.107 58.3568 330.107 48.3568 341.107 55.8568C349.907 61.8568 337.441 76.6901 330.107 83.3568C330.107 87.1901 327.807 96.3568 318.607 102.357C309.407 108.357 301.441 104.857 298.607 102.357L255.607 127.857V155.357V186.857L298.607 274.857H318.607L341.107 302.857L330.107 332.857Z" fill="#D9D9D9" stroke="black"/>
</svg>
