<svg width="344" height="387" viewBox="0 0 344 387" fill="none" xmlns="http://www.w3.org/2000/svg">
<path d="M329 332.358L245.5 386.857L59 355.358L0 332.358C7.16667 327.858 26 313.057 44 289.857C66.5 260.857 44 265.857 44 227.857C44 189.857 78 200.357 94.5 163.857C94.5 141.357 85.5 120.857 85.5 94.3574C85.5 73.1574 106.5 59.5242 117 55.3575V23.8574L143.5 55.3575H152.5C149.5 41.0242 143.5 10.1575 143.5 1.35753C143.5 -7.44247 167.833 28.6909 180 47.8575L213 37.8575C216.833 41.1909 226.7 47.8575 235.5 47.8575C246.5 47.8575 284.5 37.8575 297.5 37.8575C310.5 37.8575 305 37.8575 317.5 47.8575C330 57.8575 329 47.8575 340 55.3575C348.8 61.3575 336.333 76.1909 329 82.8575C329 86.6909 326.7 95.8575 317.5 101.858C308.3 107.858 300.333 104.358 297.5 101.858L254.5 127.358V154.858V186.358L297.5 274.358H317.5L340 302.358L329 332.358Z" fill="#FF7DA3"/>
</svg>
